<?xml version="1.0" encoding="UTF-8"?>
<svg xmlns="http://www.w3.org/2000/svg" viewBox="0 0 32 32">
  <rect width="32" height="32" rx="6" fill="#000000"/>
  <g transform="translate(6.5, 4) scale(1)">
    <path fill="#ffffff" d="M14.42.75l-1.23,6.99h-4.28c-3.99,0-7.8,3.23-8.5,7.22l-.3,1.7c-.7,3.99,1.96,7.22,5.95,7.22h3.57c2.91,0,5.68-2.35,6.19-5.26L19.11,0l-4.69.75ZM11.39,17.96c-.16.9-.97,1.63-1.87,1.63h-2.17c-1.79,0-2.99-1.46-2.68-3.25l.19-1.06c.32-1.79,2.03-3.25,3.82-3.25h3.75l-1.05,5.93Z"/>
  </g>
</svg>
