<?xml version="1.0" encoding="UTF-8"?>
<svg id="Camada_2" data-name="Camada 2" xmlns="http://www.w3.org/2000/svg" viewBox="0 0 110.56 24.21">
  <defs>
    <style>
      .cls-1 {
        fill: #ff444f;
      }

      .cls-2 {
        fill: #fff;
        opacity: .92;
      }
    </style>
  </defs>
  <g id="Camada_1-2" data-name="Camada 1">
    <g>
      <path class="cls-1" d="M14.42.75l-1.23,6.99h-4.28c-3.99,0-7.8,3.23-8.5,7.22l-.3,1.7c-.7,3.99,1.96,7.22,5.95,7.22h3.57c2.91,0,5.68-2.35,6.19-5.26L19.11,0l-4.69.75ZM11.39,17.96c-.16.9-.97,1.63-1.87,1.63h-2.17c-1.79,0-2.99-1.46-2.68-3.25l.19-1.06c.32-1.79,2.03-3.25,3.82-3.25h3.75l-1.05,5.93ZM47.38,23.89l2.81-15.92h4.44l-2.81,15.92h-4.44ZM47.86,8.15c-.22,1.26-.45,2.53-.67,3.79-2.1-.65-4.27-.45-4.94-.31-.72,4.09-1.44,8.18-2.16,12.27h-4.44c.6-3.42,2.67-15.1,2.67-15.1,1.45-.6,4.99-1.81,9.55-.64ZM29.85,7.74h-3.46c-3.37,0-6.58,2.73-7.17,6.1l-.7,3.96c-.59,3.37,1.65,6.1,5.02,6.1h7.35l.75-4.28h-6.91c-1.12,0-1.87-.91-1.67-2.03l.02-.13h11.14l.64-3.61c.59-3.37-1.65-6.1-5.02-6.1h0ZM30.41,13.49l-.03.23h-6.63l.04-.2c.2-1.12,1.22-2.11,2.35-2.11h2.59c1.11,0,1.86.97,1.68,2.08ZM67.51,7.96h4.44c-1.51,4.02-4.98,10.87-8.34,15.92h-4.44c-1.54-4.81-2.54-11.51-2.73-15.92h4.44c.08,1.44.72,6.77,1.46,10.5,2.02-3.63,4.24-8.38,5.17-10.5h0Z"/>
      <g>
        <path class="cls-2" d="M84.29,24.21l-5.6-8.1-1.92,7.69h-2.76l3.84-12.59,5.61,8.08,1.91-7.68h2.55l-3.62,12.59Z"/>
        <path class="cls-2" d="M87.91,23.8l3.05-12.18h6.61l-.72,1.92h-4.22l-.51,2.06h3.28l-.82,1.87h-2.92l-1.1,4.35h4.78l-1.05,1.99h-6.36Z"/>
        <path class="cls-2" d="M103.43,24.05c-1.07,0-2.04-.25-2.9-.74-.86-.5-1.53-1.17-2.03-2.02-.5-.85-.75-1.8-.75-2.84,0-.93.19-1.82.58-2.66s.91-1.6,1.58-2.26c.67-.66,1.43-1.19,2.29-1.57.86-.38,1.76-.58,2.69-.58,1.07,0,2.04.25,2.9.74s1.53,1.17,2.03,2.01c.5.84.75,1.79.75,2.85,0,.93-.19,1.82-.58,2.67-.38.85-.91,1.6-1.58,2.26-.67.66-1.44,1.18-2.29,1.56-.85.38-1.75.58-2.69.58ZM103.66,21.92c.6,0,1.18-.13,1.73-.39s1.04-.61,1.47-1.06c.43-.45.77-.96,1.02-1.53.25-.57.37-1.16.37-1.79,0-.69-.16-1.32-.47-1.87-.31-.55-.74-.99-1.28-1.31-.54-.32-1.16-.48-1.84-.48-.6,0-1.18.13-1.73.39s-1.04.61-1.47,1.06-.77.95-1.02,1.52c-.25.57-.37,1.16-.37,1.77,0,.7.16,1.32.47,1.88.32.56.74,1,1.29,1.32s1.15.48,1.83.48Z"/>
      </g>
    </g>
  </g>
</svg>